<?xml version="1.0" encoding="utf-8"?>
<!-- Generator: Adobe Illustrator 27.5.0, SVG Export Plug-In . SVG Version: 6.00 Build 0)  -->
<svg version="1.1" id="Layer_1" xmlns="http://www.w3.org/2000/svg" xmlns:xlink="http://www.w3.org/1999/xlink" x="0px" y="0px"
	 viewBox="0 0 4000 4000" style="enable-background:new 0 0 4000 4000;" xml:space="preserve">
<g>
	<g>
		<g>
			<rect style="fill:#FAAD4C;" width="4000" height="4000"/>
		</g>
	</g>
	<g>
		<g style="opacity:0.3;">
			<g>
				<ellipse style="fill:#6D184E;" cx="2000" cy="3411.042" rx="927.534" ry="108.3"/>
			</g>
		</g>
	</g>
	<g>
		<g>
			<g>
				<path style="fill:#F9A332;" d="M2194.072,912.769c0,0-180.458-60.032-194.566,66.545
					c-14.108,126.577-180.887,677.775-705.952,980.264s-292.333,783.146,222.979,899.163S3307.492,1035.241,2194.072,912.769z"/>
			</g>
		</g>
		<g>
			<g>
				<path style="fill:#6D184E;" d="M1563.732,2887.074c-18.15,0-35.586-1.88-52.307-5.645
					c-142.93-32.178-268.916-92.656-364.338-174.897c-95.166-82.021-153.75-179.941-169.414-283.169
					c-27.778-183.032,80.283-354.897,304.273-483.936c275.635-158.794,443.611-385.361,535.989-547.461
					c102.317-179.546,150.82-346.689,158.457-415.229c3.987-35.767,20.283-63.755,47.124-80.933
					c60.701-38.857,158.23-11.226,175.417-5.898c218.481,24.585,361.499,118.516,425.078,279.209
					c136.489,344.98-134.604,925.776-472.939,1321.201c-111.616,130.454-226.824,235.679-333.172,304.302
					C1722.604,2856.113,1637.382,2887.07,1563.732,2887.074z M2105.79,921.83c-21.165,0-41.98,3.389-57.256,13.188
					c-14.995,9.619-23.469,24.951-25.913,46.875c-6.941,62.271-50.205,232.935-164.275,433.101
					c-95.229,167.109-268.503,400.732-553.184,564.736c-206.23,118.809-306.204,273.882-281.501,436.655
					c13.975,92.095,67.156,180.239,153.794,254.912c89.661,77.275,208.677,134.243,344.185,164.751
					c140.881,31.758,368.525-112.344,594.087-375.972c168.286-196.685,315.41-437.192,403.645-659.854
					c99.619-251.392,120.845-463.706,61.384-613.994c-56.96-143.975-187.917-228.198-389.229-250.342
					c-1.631-0.181-3.24-0.532-4.797-1.05C2171.393,929.775,2138.188,921.83,2105.79,921.83z"/>
			</g>
		</g>
		<g>
			<g>
				<path style="fill:#EE1822;" d="M1288.895,2128.382c0,0,500.688-405.422,747.515-1019.662s907.975-266.749,583.875,555.829
					c-332.454,843.781-969.958,1126.263-1297.514,979.446C857.419,2435.415,1288.895,2128.382,1288.895,2128.382z"/>
			</g>
		</g>
		<g style="opacity:0.4;">
			<g>
				<path style="fill:#FFFFFF;" d="M1413.822,2648.368c-516.43-197.284-33.876-515.613-33.876-515.613
					s500.688-405.422,747.515-1019.662c76.315-189.916,192.238-287.856,306.403-308.278
					c-144.983-41.123-318.406,48.26-420.685,302.789c-246.827,614.241-747.515,1019.662-747.515,1019.662
					s-431.476,307.032,33.876,515.613c62.943,28.212,137.36,40.503,218.829,36.074
					C1480.947,2672.933,1446.642,2660.906,1413.822,2648.368z"/>
			</g>
		</g>
		<g>
			<g>
				<path style="fill:#6D184E;" d="M1509.633,2704.506c-71.465,0-137.844-13.057-196.372-39.287
					c-142.393-63.823-219.36-144.429-228.77-239.58c-16.164-163.521,175.208-304.893,190.264-315.737
					c8.784-7.202,130.42-107.9,278.542-277.134c140.93-161.016,335.403-418.838,461.533-732.72
					c118.845-295.752,324.663-367.402,475.933-307.207c108.435,43.149,189.778,151.343,223.171,296.846
					c38.01,165.615,13.11,367.349-72.012,583.389c-186.653,473.735-494.521,827.29-844.663,970.01
					C1697.011,2683.949,1599.315,2704.506,1509.633,2704.506z M1302.391,2147.323c-1.855,1.323-185.505,134.092-171.599,273.833
					c7.69,77.3,75.483,145.132,201.492,201.611c120.271,53.916,279.165,45.825,447.419-22.759
					c338.43-137.944,636.924-482.017,818.943-943.984c103.171-261.855,94.985-446.851,69.951-555.938
					c-29.922-130.376-101.011-226.611-195.034-264.028c-129.817-51.641-308.667,15.298-415.574,281.333
					c-128.721,320.332-326.856,582.935-470.4,746.821c-155.549,177.593-278.884,278.057-284.058,282.246
					C1303.161,2146.757,1302.78,2147.045,1302.391,2147.323L1302.391,2147.323z M1288.895,2128.383h0.049H1288.895z"/>
			</g>
		</g>
		<g>
			<g>
				<g>
					<path style="fill:#6D184E;" d="M1236.646,2381.301c10.58,12.633,20.079,24.709,29.714,36.516
						c9.59,11.793,19.282,23.107,29.246,34.05c9.873,11.063,20.348,21.392,31.338,31.55c2.793,2.48,5.54,5.078,8.31,7.709
						c2.932,2.357,5.837,4.834,8.756,7.386c5.672,5.454,12.171,9.587,18.203,15.591c-4.098-0.248-8.149-0.846-12.231-1.521
						c-2.062-0.294-4.077-0.728-6.129-1.115c-1.996-0.499-3.909-1.189-5.885-1.785c-3.899-1.29-7.814-2.657-11.701-4.143
						c-3.726-1.731-7.403-3.611-11.073-5.544c-14.485-7.98-27.733-18.401-38.684-30.729c-11.087-12.213-20.361-25.967-27.339-40.745
						C1242.35,2413.715,1237.273,2397.91,1236.646,2381.301z"/>
				</g>
			</g>
			<g>
				<g>
					<path style="fill:#6D184E;" d="M1351.51,2386.819c-9.246,12.681-18.966,23.792-28.758,34.644
						c-9.779,10.822-19.726,21.16-29.434,31.563c-9.639,10.449-19.391,20.648-28.776,31.315
						c-9.338,10.745-18.301,21.625-28.014,34.077c-0.587-15.778,4.273-31.3,11.099-45.337c7.046-13.992,16.417-26.505,26.882-37.765
						c10.523-11.224,22.417-20.945,35.167-29.315C1322.524,2397.789,1336.196,2390.676,1351.51,2386.819z"/>
				</g>
			</g>
		</g>
		<g>
			<g>
				<path style="fill:#F9A332;" d="M2564.849,771.898c0,0-174.531-29.081-140.423,122.614
					c32.335,143.806,205.74,545.5-599.055,1195.404c-79.174,63.936-127.206,158.028-135.262,259.474
					c-10.039,126.419-56.439,369.392-275.008,347.334c-163.064-16.456,261.215,522.543,1045.38-182.903
					S2956.947,795.906,2564.849,771.898z"/>
			</g>
		</g>
		<g>
			<g style="opacity:0.3;">
				<g>
					<g style="opacity:0.3;">
						<g>
							
								<ellipse transform="matrix(0.431 -0.9024 0.9024 0.431 -1146.7593 3233.0146)" style="fill:#6D184E;" cx="1990.039" cy="2525.759" rx="18.951" ry="18.951"/>
						</g>
					</g>
				</g>
			</g>
			<g style="opacity:0.3;">
				<g>
					<g style="opacity:0.3;">
						<g>
							
								<ellipse transform="matrix(0.9404 -0.3401 0.3401 0.9404 -653.9662 896.6193)" style="fill:#6D184E;" cx="2231.006" cy="2314.028" rx="18.951" ry="18.951"/>
						</g>
					</g>
				</g>
			</g>
			<g style="opacity:0.3;">
				<g>
					<g style="opacity:0.3;">
						<g>
							
								<ellipse transform="matrix(0.431 -0.9024 0.9024 0.431 -975.5753 3362.6033)" style="fill:#6D184E;" cx="2178.38" cy="2454.823" rx="18.951" ry="18.951"/>
						</g>
					</g>
				</g>
			</g>
			<g>
				<g>
					<g style="opacity:0.3;">
						<g>
							<circle style="fill:#6D184E;" cx="2095.299" cy="2218.897" r="18.951"/>
						</g>
					</g>
				</g>
			</g>
			<g>
				<g>
					<g style="opacity:0.3;">
						<g>
							
								<ellipse transform="matrix(0.0531 -0.9986 0.9986 0.0531 93.8268 4438.9736)" style="fill:#6D184E;" cx="2387.541" cy="2170.013" rx="18.951" ry="18.951"/>
						</g>
					</g>
				</g>
			</g>
			<g>
				<g>
					<g style="opacity:0.3;">
						<g>
							<circle style="fill:#6D184E;" cx="2468.433" cy="1901.636" r="18.951"/>
						</g>
					</g>
				</g>
			</g>
			<g style="opacity:0.3;">
				<g>
					<g style="opacity:0.3;">
						<g>
							<circle style="fill:#6D184E;" cx="2303.781" cy="2022.024" r="18.951"/>
						</g>
					</g>
				</g>
			</g>
			<g>
				<g>
					<g style="opacity:0.3;">
						<g>
							
								<ellipse transform="matrix(0.7566 -0.6539 0.6539 0.7566 -546.1969 2251.6223)" style="fill:#6D184E;" cx="2751.29" cy="1859.465" rx="18.951" ry="18.951"/>
						</g>
					</g>
				</g>
			</g>
			<g>
				<g>
					<g style="opacity:0.3;">
						<g>
							
								<ellipse transform="matrix(0.9971 -0.0755 0.0755 0.9971 -106.5775 207.7162)" style="fill:#6D184E;" cx="2692.54" cy="1512.72" rx="18.951" ry="18.951"/>
						</g>
					</g>
				</g>
			</g>
			<g style="opacity:0.3;">
				<g>
					<g style="opacity:0.3;">
						<g>
							
								<ellipse transform="matrix(0.9966 -0.0819 0.0819 0.9966 -130.1257 215.8683)" style="fill:#6D184E;" cx="2566.19" cy="1694.057" rx="18.951" ry="18.951"/>
						</g>
					</g>
				</g>
			</g>
			<g>
				<g>
					<g style="opacity:0.3;">
						<g>
							
								<ellipse transform="matrix(0.431 -0.9024 0.9024 0.431 1.6164 3102.1777)" style="fill:#6D184E;" cx="2460.488" cy="1549.807" rx="18.951" ry="18.951"/>
						</g>
					</g>
				</g>
			</g>
			<g style="opacity:0.3;">
				<g>
					<g style="opacity:0.3;">
						<g>
							<path style="fill:#6D184E;" d="M2657.235,1297.8c-0.502,10.454-9.384,18.522-19.838,18.02
								c-10.454-0.502-18.522-9.384-18.02-19.838c0.502-10.454,9.384-18.522,19.838-18.02
								C2649.669,1278.464,2657.737,1287.346,2657.235,1297.8z"/>
						</g>
					</g>
				</g>
			</g>
			<g style="opacity:0.3;">
				<g>
					<g style="opacity:0.3;">
						<g>
							<path style="fill:#6D184E;" d="M2883.542,1220.293c-0.502,10.454-9.384,18.522-19.838,18.02
								c-10.454-0.502-18.522-9.384-18.02-19.838c0.502-10.454,9.384-18.522,19.838-18.02
								C2875.977,1200.958,2884.045,1209.839,2883.542,1220.293z"/>
						</g>
					</g>
				</g>
			</g>
			<g>
				<g>
					<g style="opacity:0.3;">
						<g>
							
								<ellipse transform="matrix(0.1526 -0.9883 0.9883 0.1526 1255.4091 3510.1165)" style="fill:#6D184E;" cx="2674.466" cy="1023.025" rx="18.951" ry="18.951"/>
						</g>
					</g>
				</g>
			</g>
			<g>
				<g>
					<g style="opacity:0.3;">
						<g>
							
								<ellipse transform="matrix(0.9404 -0.3401 0.3401 0.9404 -243.5039 934.5504)" style="fill:#6D184E;" cx="2544.452" cy="1161.974" rx="18.951" ry="18.951"/>
						</g>
					</g>
				</g>
			</g>
			<g style="opacity:0.3;">
				<g>
					<g style="opacity:0.3;">
						<g>
							<circle style="fill:#6D184E;" cx="2707.038" cy="1117.202" r="18.951"/>
						</g>
					</g>
				</g>
			</g>
			<g>
				<g>
					<g style="opacity:0.3;">
						<g>
							
								<ellipse transform="matrix(0.7566 -0.6539 0.6539 0.7566 -217.3782 2193.5837)" style="fill:#6D184E;" cx="2837.741" cy="1388.775" rx="18.951" ry="18.951"/>
						</g>
					</g>
				</g>
			</g>
			<g>
				<g>
					<g style="opacity:0.3;">
						<g>
							
								<ellipse transform="matrix(0.1052 -0.9944 0.9944 0.1052 909.696 4299.8384)" style="fill:#6D184E;" cx="2844.278" cy="1644.399" rx="18.951" ry="18.951"/>
						</g>
					</g>
				</g>
			</g>
			<g>
				<g>
					<g style="opacity:0.3;">
						<g>
							
								<ellipse transform="matrix(0.5573 -0.8303 0.8303 0.5573 -621.9528 3101.1897)" style="fill:#6D184E;" cx="2597.339" cy="2133.866" rx="18.951" ry="18.951"/>
						</g>
					</g>
				</g>
			</g>
			<g>
				<g>
					<g style="opacity:0.3;">
						<g>
							
								<ellipse transform="matrix(0.9966 -0.0819 0.0819 0.9966 -187.5741 164.0502)" style="fill:#6D184E;" cx="1905.846" cy="2368.395" rx="18.951" ry="18.951"/>
						</g>
					</g>
				</g>
			</g>
			<g>
				<g>
					<g style="opacity:0.3;">
						<g>
							
								<ellipse transform="matrix(0.8997 -0.4365 0.4365 0.8997 -961.7429 1070.713)" style="fill:#6D184E;" cx="1849.05" cy="2628.154" rx="18.951" ry="18.951"/>
						</g>
					</g>
				</g>
			</g>
			<g>
				<g>
					<g style="opacity:0.3;">
						<g>
							
								<ellipse transform="matrix(0.431 -0.9024 0.9024 0.431 -1489.1646 3104.7478)" style="fill:#6D184E;" cx="1717.135" cy="2733.115" rx="18.951" ry="18.951"/>
						</g>
					</g>
				</g>
			</g>
			<g>
				<g>
					<g style="opacity:0.3;">
						<g>
							
								<ellipse transform="matrix(0.4086 -0.9127 0.9127 0.4086 -1132.0502 3445.5845)" style="fill:#6D184E;" cx="2092.645" cy="2596.301" rx="18.951" ry="18.951"/>
						</g>
					</g>
				</g>
			</g>
			<g>
				<g>
					<g style="opacity:0.3;">
						<g>
							
								<ellipse transform="matrix(0.4086 -0.9127 0.9127 0.4086 -444.3301 3125.4502)" style="fill:#6D184E;" cx="2189.484" cy="1905.578" rx="18.951" ry="18.951"/>
						</g>
					</g>
				</g>
			</g>
			<g style="opacity:0.3;">
				<g>
					<g style="opacity:0.3;">
						<g>
							
								<ellipse transform="matrix(0.0622 -0.9981 0.9981 0.0622 526.9734 3964.3301)" style="fill:#6D184E;" cx="2372.927" cy="1701.76" rx="18.951" ry="18.951"/>
						</g>
					</g>
				</g>
			</g>
		</g>
		<g style="opacity:0.5;">
			<g>
				<path style="fill:#FFFFFF;" d="M2591.264,903.28c1.359-28.284-10.661-54.071-30.436-71.371
					c74.912,5.118,185.942,59.739,215.556,83.82c-34.723-49.992-74.22-90.122-116.811-118.218
					c-30.495-14.816-62.248-23.624-94.725-25.613c0,0-174.531-29.081-140.423,122.614c32.335,143.806,205.74,545.5-599.055,1195.404
					c-79.174,63.936-127.206,158.027-135.262,259.474c-5.156,64.927-19.911,160.591-62.646,235.311
					c41.954-36.71,82.6-87.552,116.107-157.924c20.076-42.163,25.695-89.764,43.515-131.351
					c14.304,8.248,30.684,13.381,48.313,14.229c59.161,2.841,109.424-42.815,112.266-101.976
					c1.38-28.729-8.743-55.305-26.231-75.426c645.153-538.767,628.356-948.247,589.73-1144.646
					C2554.386,983.285,2589.118,947.972,2591.264,903.28z"/>
			</g>
		</g>
		<g style="opacity:0.35;">
			<g>
				<path style="fill:#6D184E;" d="M2571.174,1066.673c-33.287-53.067-83.493-87.293-145.186-98.975
					c-167.607-31.747-378.63,119.676-402.148,137.049c-40.11,29.638-48.631,86.381-18.997,126.496
					c29.645,40.11,86.386,48.627,126.491,18.996c54.203-40.057,189.241-118.42,260.993-104.806
					c12.018,2.275,19.192,7.142,25.599,17.357c7.191,11.465,10.409,19.156,11.838,23.585c-5.961,4.709-20.456,13.904-52.325,24.73
					c-48.169,16.365-111.972,28.846-179.525,42.059c-190.018,37.179-386.509,75.622-440.79,229.657
					c-20.524,58.251-41.643,142.869,11.678,204.917c59.165,68.838,152.437,51.117,242.644,33.974
					c54.489-10.351,145.691-27.676,160.193-1.057c18.11,33.247,16.618,60.743-4.692,86.533
					c-48.323,58.49-185.17,89.623-353.229,35.949c-189.385-60.469-393.851,39.743-497.974,169.978
					c-72.056,90.137-88.242,184.63-44.414,259.257c37.831,64.41,111.317,99.673,218.413,104.812
					c51.252,2.457,111.263-1.988,178.367-13.211c23.83-3.984,44.678-17.01,58.71-36.675c14.032-19.67,19.564-43.624,15.579-67.448
					c-3.984-23.83-17.005-44.683-36.67-58.715c-19.665-14.027-43.633-19.564-67.453-15.574
					c-153.976,25.747-201.379,1.348-209.937-4.389c0.576-7.991,7.589-28.696,28.695-55.1
					c64.792-81.027,195.313-144.566,301.666-110.609c111.838,35.705,222.431,45.57,319.809,28.504
					c96.1-16.837,177.032-60.009,227.891-121.56c68.355-82.73,77.362-190.502,24.09-288.286
					c-77.585-142.434-249.876-109.691-352.823-90.123c-15.355,2.918-35.442,6.736-53.458,9.405c1.04-3.24,2.208-6.723,3.529-10.467
					c19.899-56.483,191.415-90.038,304.913-112.245c170.257-33.313,317.298-62.081,365.613-173.634
					C2623.289,1199.286,2614.173,1135.232,2571.174,1066.673z"/>
			</g>
		</g>
		<g>
			<g>
				<path style="fill:#6D184E;" d="M1486.327,2827.405c60.508,16.473,124.031,23.202,187.414,22.297l23.796-0.769
					c7.93-0.299,15.873-0.281,23.776-1.3l47.47-4.707l47.145-7.786c3.92-0.701,7.88-1.171,11.767-2.058l11.653-2.719l23.307-5.425
					l23.311-5.41l22.949-6.912l22.947-6.92l11.475-3.455l5.738-1.727l5.624-2.092c29.915-11.379,60.3-21.523,89.262-35.409
					l21.964-9.778c7.271-3.37,14.775-6.228,21.794-10.155l42.711-22.247l21.337-11.16l20.684-12.397l41.378-24.777
					c6.995-3.967,13.622-8.542,20.257-13.103l19.965-13.586l39.939-27.159l76.795-58.809l73.655-62.896l35.52-32.831l34.559-33.818
					c90.804-91.489,170.622-193.789,235.541-304.854c32.605-55.443,60.891-113.345,85.341-172.759
					c24.56-59.388,44.406-120.66,60-182.949c30.887-124.603,43.704-253.887,35.083-381.794
					c-2.254-31.954-5.777-63.794-10.572-95.422c-4.827-31.626-11.323-62.95-19.063-93.912
					c-15.464-61.914-37.312-122.18-66.182-178.486c-28.917-56.128-65.354-108.568-110.892-150.309
					c-22.69-20.874-47.998-38.369-74.973-51.581c-3.319-1.794-6.775-3.22-10.233-4.639l-10.344-4.326l-10.57-3.576l-5.282-1.793
					l-5.379-1.382l-10.749-2.802l-10.895-1.946l-5.444-0.995l-5.495-0.538l-10.984-1.123l-1.281-0.131
					c-0.348-0.035-0.778-0.092-1.121-0.142c-2.029-0.308-5.276-0.714-8.042-0.957c-2.878-0.278-5.8-0.488-8.721-0.641
					c-5.846-0.299-11.709-0.387-17.515-0.223c-11.573,0.411-23.024,1.643-33.517,4.335c-10.432,2.712-20.211,6.495-27.668,11.965
					c-7.496,5.44-13.278,11.852-16.813,20.044c-3.618,8.121-5.342,17.865-5.436,28.404c-0.146,10.598,1.796,21.76,4.187,33.239
					c5.678,24.112,12.903,49.654,18.72,75.474c5.888,25.877,10.851,52.213,14.166,78.835c0.86,6.648,1.403,13.347,2.115,20.018
					l0.989,10.018l0.594,10.059c0.36,6.707,0.863,13.408,1.095,20.12l0.282,20.156c0.21,6.72-0.02,13.434-0.275,20.148l-0.68,20.142
					l-1.647,20.073c-0.583,6.687-0.973,13.4-1.998,20.029c-1.904,13.271-3.164,26.664-5.911,39.779
					c-2.442,13.171-4.705,26.388-8.087,39.33c-12.174,52.115-29.874,102.633-51.28,151.241l-16.796,36.099
					c-5.982,11.823-12.241,23.492-18.354,35.243c-5.924,11.869-12.874,23.109-19.472,34.565
					c-6.735,11.368-13.083,22.997-20.433,33.951c-56.454,89.246-122.06,171.958-193.531,248.585
					c-71.401,76.738-147.545,148.682-226.975,216.462c-19.778,17.042-40.092,33.419-60.113,50.159
					c-9.969,8.28-20.434,16.853-29.305,24.518c-9.177,7.925-17.867,16.411-26.122,25.295
					c-32.993,35.566-58.302,78.301-73.712,124.452c-7.736,23.062-13.085,46.934-15.972,71.112l-0.947,9.084
					c-0.321,2.982-0.642,6.005-0.929,9.556c-0.525,6.829-1.301,13.582-2.104,20.328c-1.771,13.446-3.829,26.818-6.51,40.037
					c-10.128,52.909-26.87,104.965-53.897,152.566c-13.608,23.683-29.4,46.335-47.825,66.959
					c-18.515,20.479-39.735,39.027-63.857,53.134c-23.925,14.324-50.442,24.299-77.558,29.05
					c-27.151,4.711-54.693,4.117-80.951-0.646c-3.943-0.715-6.559-4.491-5.844-8.434c0.635-3.502,3.686-5.958,7.124-5.962
					l0.07,0.001c25.343-0.044,50.318-2.922,73.647-10.339c23.373-7.17,44.991-18.457,64.3-32.716
					c9.702-7.074,18.602-15.233,27.271-23.547c4.125-4.419,8.328-8.728,12.289-13.285c3.785-4.75,7.906-9.126,11.411-14.119
					c14.792-19.21,27.411-40.253,38.244-62.283c11.005-21.953,20.169-44.957,28.467-68.308c8.215-23.383,15.363-47.3,20.64-71.611
					c2.729-12.144,4.72-24.399,6.533-36.627c0.813-6.117,1.609-12.234,2.16-18.325l2.081-20.051
					c3.263-27.307,9.308-54.298,18.068-80.402c17.447-52.233,46.14-100.771,83.677-141.235
					c9.388-10.109,19.281-19.761,29.719-28.782c10.766-9.269,20.379-17.106,30.349-25.399
					c19.757-16.523,39.829-32.698,59.332-49.504c78.349-66.851,153.215-137.627,223.116-212.75
					c69.988-75.013,133.773-155.585,188.226-241.653c7.118-10.583,13.185-21.748,19.667-32.682
					c6.339-11.011,13.054-21.835,18.7-33.188c5.846-11.252,11.853-22.434,17.581-33.739l16.015-34.427
					c20.374-46.279,37.077-94.047,48.499-142.938c3.199-12.158,5.286-24.515,7.578-36.836c2.6-12.28,3.724-24.755,5.524-37.14
					c0.973-6.189,1.315-12.433,1.857-18.66l1.547-18.688l0.62-18.729c0.242-6.241,0.467-12.485,0.259-18.729l-0.256-18.734
					c-0.216-6.24-0.696-12.473-1.026-18.71l-0.543-9.355l-0.929-9.332c-0.669-6.217-1.161-12.449-1.966-18.656
					c-3.096-24.847-7.738-49.53-13.351-74.209c-5.571-24.778-12.504-49.154-18.729-75.514c-2.913-13.856-5.502-28.391-5.348-43.79
					c0.125-15.33,2.579-31.714,9.556-47.328c6.78-15.692,18.853-29.376,32.408-38.921c13.63-9.758,28.585-15.273,43.154-19.065
					c14.651-3.715,29.149-5.201,43.46-5.712c7.154-0.203,14.262-0.096,21.363,0.269c3.552,0.187,7.096,0.442,10.67,0.786
					c3.688,0.35,6.882,0.706,11.26,1.378l-2.399-0.272c35.816,2.614,71.104,11.969,102.74,27.65
					c31.729,15.511,60.646,35.718,86.064,59.069c50.978,46.779,90.061,103.584,120.947,163.425
					c30.778,60.035,53.706,123.521,69.925,188.389c8.113,32.438,14.892,65.187,19.931,98.182
					c5.007,32.996,8.674,66.163,11.015,99.415c8.961,133.073-4.365,267.084-36.353,396.146
					c-16.147,64.512-36.701,127.928-62.097,189.358c-25.286,61.456-54.54,121.302-88.204,178.561
					c-67.038,114.702-149.354,220.133-242.706,314.186l-35.516,34.756l-36.48,33.717l-75.465,64.442
					c-26.177,20.273-52.521,40.363-78.884,60.405l-41.127,27.988l-20.568,13.987c-6.836,4.692-13.664,9.397-20.89,13.51
					l-42.736,25.599l-21.373,12.791l-22.093,11.573l-44.251,23.036c-7.267,4.049-15.072,7.051-22.622,10.549l-22.819,10.165
					c-30.067,14.375-61.756,25.034-92.939,36.846l-5.864,2.174l-5.996,1.813l-11.992,3.623l-23.987,7.236l-23.997,7.202
					l-24.438,5.696l-24.441,5.682l-12.221,2.836c-4.078,0.925-8.249,1.436-12.369,2.174l-49.593,8.175l-50.093,4.979
					c-8.329,1.051-16.753,1.061-25.149,1.382l-25.201,0.811c-67.219,0.94-134.941-6.111-200.654-24.017
					c-12.393-3.376-19.701-16.161-16.324-28.553c3.377-12.393,16.161-19.701,28.553-16.324L1486.327,2827.405z"/>
			</g>
		</g>
		<g>
			<g>
				<g>
					<g>
						<path style="fill:#FFCE00;" d="M1452.892,2352.131c-98.928-4.747-165.748-35.94-199.473-93.361
							c-38.681-65.86-23.178-150.765,42.524-232.956c99.156-124.02,293.369-219.608,472.736-162.342
							c186.17,59.453,326.576,19.231,378.231-43.293c27.377-33.129,29.791-70.972,7.186-112.472
							c-20.957-38.463-92.989-28.145-184.961-10.665c-87.556,16.638-170.261,32.355-220.663-26.286
							c-45.463-52.904-25.981-129.225-7.376-182.028c49.859-141.491,239.713-178.638,423.319-214.562
							c68.358-13.371,132.922-26.006,182.54-42.862c59.177-20.104,67.896-36.873,68.697-38.719
							c1.637-3.782,0.402-17.843-15.988-43.977c-9.889-15.768-22.529-24.357-40.977-27.85
							c-85.514-16.192-233.917,75.536-279.14,108.952c-29.846,22.053-71.913,15.727-93.966-14.114
							c-22.048-29.844-15.732-71.913,14.114-93.966c22.674-16.751,226.093-162.817,383.995-132.903
							c55.173,10.447,100.06,41.044,129.813,88.482c38.685,61.677,47.251,118.463,25.455,168.783
							c-43.449,100.321-184.926,128.003-348.74,160.054c-132.795,25.981-298.063,58.316-322.383,127.34
							c-7.501,21.287-10.738,35.558-12.074,44.645c22.363-0.477,60.865-7.794,88.286-13.005
							c102.972-19.569,258.582-49.139,328.055,78.4c48.559,89.137,40.482,187.21-21.596,262.347
							c-47.335,57.284-123.323,97.581-213.975,113.464c-93.685,16.42-200.445,6.822-308.724-27.752
							c-115.869-36.998-257.203,31.062-326.903,118.24c-29.644,37.085-38.412,69.408-31.612,80.993
							c10.216,17.393,72.457,43.117,234.853,15.96c36.611-6.129,71.23,18.586,77.35,55.186c6.12,36.595-18.586,71.23-55.186,77.35
							C1560.488,2350.219,1502.621,2354.514,1452.892,2352.131z"/>
					</g>
				</g>
			</g>
			<g style="opacity:0.6;">
				<g>
					<path style="fill:#FFFFFF;" d="M1741.096,1533.727c49.858-141.492,239.713-178.639,423.319-214.562
						c68.359-13.372,132.922-26.006,182.54-42.861c59.177-20.104,67.896-36.873,68.697-38.719
						c1.418-3.276,0.663-14.285-10.217-34.156c-9.209,7.09-26.44,16.991-58.48,27.876c-49.617,16.855-114.181,29.49-182.54,42.861
						c-183.606,35.923-373.461,73.07-423.319,214.562c-12.238,34.733-24.85,79.641-19.113,121.368
						C1725.161,1582.795,1733.198,1556.14,1741.096,1533.727z"/>
				</g>
			</g>
			<g style="opacity:0.6;">
				<g>
					<path style="fill:#FFFFFF;" d="M1999.694,1166.628c22.674-16.75,226.093-162.816,383.995-132.903
						c55.173,10.448,100.06,41.045,129.813,88.483c19.421,30.963,31.24,60.692,35.448,88.992
						c6.367-41.234-5.429-86.132-35.448-133.992c-29.753-47.438-74.64-78.035-129.813-88.483
						c-157.902-29.913-361.321,116.152-383.995,132.903c-24.379,18.014-33.038,49.376-23.385,76.528
						C1980.631,1185.968,1988.51,1174.893,1999.694,1166.628z"/>
				</g>
			</g>
			<g style="opacity:0.6;">
				<g>
					<path style="fill:#FFFFFF;" d="M1944.046,1565.024c-22.807,4.335-53.251,10.112-75.727,12.212
						c-0.146,0.387-0.348,0.759-0.485,1.147c-7.5,21.288-10.738,35.559-12.074,44.646c22.363-0.477,60.865-7.794,88.286-13.005
						c102.972-19.569,258.582-49.139,328.055,78.4c17.009,31.224,27.042,63.542,30.267,95.59
						c4.704-46.329-5.238-94.644-30.267-140.59C2202.628,1515.885,2047.018,1545.455,1944.046,1565.024z"/>
				</g>
			</g>
			<g style="opacity:0.6;">
				<g>
					<path style="fill:#FFFFFF;" d="M1295.943,2070.813c99.156-124.02,293.369-219.608,472.736-162.341
						c186.17,59.453,326.576,19.231,378.231-43.293c20.435-24.729,26.946-52.087,19.54-81.631
						c-3.453,12.759-9.922,24.991-19.54,36.631c-51.655,62.524-192.061,102.747-378.231,43.293
						c-179.367-57.267-373.58,38.322-472.736,162.341c-48.341,60.474-69.469,122.407-61.872,177.152
						C1239.635,2160.408,1260.447,2115.217,1295.943,2070.813z"/>
				</g>
			</g>
			<g style="opacity:0.6;">
				<g>
					<path style="fill:#FFFFFF;" d="M1604.144,2206.676c-144.435,24.154-209.603,6.478-229.447-9.965
						c-7.952,18.036-9.425,32.158-5.406,39.005c10.215,17.394,72.457,43.116,234.853,15.959
						c32.664-5.468,63.683,13.649,74.35,43.821c3.731-10.436,4.958-21.929,3-33.634
						C1675.374,2225.262,1640.755,2200.547,1604.144,2206.676z"/>
				</g>
			</g>
			<g style="opacity:0.35;">
				<g>
					<g>
						<path style="fill:#6D184E;" d="M1337.721,2114.45c-29.644,37.086-37.532,68.935-31.612,80.993
							c30.875,62.883,174.184,95.638,261.073,28.233c-110.014,9.764-205.677-19.166-214.239-33.745
							c-6.801-11.585,1.967-43.908,31.611-80.993c45.966-57.493,163.436-120.512,243.863-136.726
							C1531.041,1934.764,1392.578,2045.837,1337.721,2114.45z"/>
					</g>
				</g>
				<g>
					<g>
						<path style="fill:#6D184E;" d="M1952.787,1696.255c18.871-3.587,36.885-6.861,53.808-9.485
							c-28.802,1.91-63.054,7.853-100.642,14.997c-17.089,3.247-33.989,6.451-50.504,9.083
							C1886.138,1708.904,1919.099,1702.657,1952.787,1696.255z"/>
					</g>
				</g>
				<g>
					<g>
						<path style="fill:#6D184E;" d="M1752.332,1862.686c-59.888-19.12-121.418-21.13-180.525-10.801
							c44.369-2.595,89.479,2.198,133.692,16.313c96.445,30.8,180.561,34.806,246.466,22.862
							C1894.684,1894.366,1827.22,1886.602,1752.332,1862.686z"/>
					</g>
				</g>
				<g>
					<g>
						<path style="fill:#6D184E;" d="M2007.111,1240.095c18.748,4.636,39.34,1.203,56.088-11.171
							c34.993-25.858,131.752-86.591,213.363-105.261c-86.96-1.706-218.155,79.706-260.197,110.773
							C2013.399,1236.627,2010.287,1238.459,2007.111,1240.095z"/>
					</g>
				</g>
				<g>
					<g>
						<path style="fill:#6D184E;" d="M1987.997,1553.627c84.27-6.64,173.048,6.636,220.922,94.525
							c48.559,89.137,40.482,187.21-21.596,262.347c-47.335,57.284-123.323,97.581-213.975,113.464
							c-1.742,0.305-3.52,0.538-5.271,0.825c17.747-1.273,35.146-3.365,52.105-6.337c90.652-15.883,166.641-56.18,213.975-113.464
							c62.078-75.136,70.154-173.21,21.596-262.347C2198.858,1538.192,2084.21,1539.122,1987.997,1553.627z"/>
					</g>
				</g>
				<g>
					<g>
						<path style="fill:#6D184E;" d="M1587.797,2205.891c-10.945,1.83-21.398,3.402-31.448,4.77
							c31.415,1.988,58.337,25.952,62.391,58.879c4.442,36.086-21.862,68.815-57.732,74.751c-9.358,1.548-18.506,2.92-27.539,4.196
							c24.19-2.258,49.642-5.571,76.492-10.061c36.6-6.12,61.306-40.754,55.186-77.35
							C1659.026,2224.477,1624.407,2199.762,1587.797,2205.891z"/>
					</g>
				</g>
				<g>
					<g>
						<path style="fill:#6D184E;" d="M2483.663,1057.427c38.542,61.678,30.931,154.641-7.887,193.29
							c-93.634,93.225-188.02,86.287-351.834,118.337c-132.795,25.981-294.969,100.032-319.29,169.056
							c-0.075,0.213-0.133,0.432-0.224,0.636c-22.672,50.921,47.488,61.898,48.278,61.767c-0.062,0.001-8.72-46.628-1.22-67.915
							c24.321-69.024,189.589-101.359,322.383-127.34c163.814-32.051,305.291-59.732,348.74-160.054
							c21.795-50.32,13.229-107.106-25.455-168.783C2492.965,1069.741,2488.441,1063.432,2483.663,1057.427z"/>
					</g>
				</g>
			</g>
			<g>
				<g>
					<g>
						<path style="fill:#6D184E;" d="M1480.041,2372.758c-9.646,0-19.011-0.215-28.108-0.654
							c-105.93-5.083-178.521-39.805-215.759-103.208c-43.108-73.398-27.017-166.548,44.148-255.571
							c103.425-129.36,306.47-228.916,494.441-168.906c177.319,56.631,309.221,20.532,356.731-36.978
							c22.266-26.948,23.867-55.601,5.039-90.171c-15.642-28.706-104.719-11.777-163.662-0.581
							c-89.294,16.973-181.624,34.517-239.565-32.896c-52.217-60.767-31.328-144.224-11.072-201.714
							c53.66-152.28,249.221-190.542,438.342-227.544c67.646-13.228,131.541-25.728,179.946-42.168
							c35.356-12.012,49.814-22.134,55.012-26.685c-1.143-4.307-4.272-12.832-12.813-26.45
							c-6.951-11.079-14.734-16.357-27.759-18.828c-72.732-13.765-208.953,65.064-263.528,105.391
							c-38.672,28.574-93.372,20.352-121.939-18.315c-28.569-38.667-20.354-93.369,18.313-121.934
							c23.396-17.285,233.362-167.974,399.605-136.47c60.784,11.509,110.244,45.225,143.032,97.505
							c42.395,67.593,51.433,130.63,26.865,187.358c-47.632,109.98-193.894,138.599-363.252,171.733
							c-114.229,22.349-286.841,56.118-307.363,114.355c-2.024,5.752-3.704,10.908-5.095,15.508
							c19.302-2.676,41.79-6.948,58.616-10.142c102.166-19.429,272.998-51.88,349.448,88.462
							c52.607,96.572,43.73,202.983-23.743,284.653c-50.366,60.957-130.605,103.726-225.94,120.43
							c-96.86,16.953-206.914,7.153-318.259-28.403c-107.673-34.37-239.727,29.785-305.2,111.675
							c-24.058,30.103-29.8,52.603-29.431,58.994c8.281,8.247,63.887,30.806,213.755,5.742c22.959-3.848,46.067,1.484,65.024,15.02
							c18.955,13.525,31.509,33.628,35.349,56.602c7.93,47.412-24.194,92.437-71.611,100.371
							C1574.645,2368.129,1524.476,2372.758,1480.041,2372.758z M1657.479,1866.391c-137.307,0-270.327,77.368-345.916,171.914
							c-60.242,75.356-75.149,152.021-40.898,210.337c29.966,51.021,91.597,79.116,183.186,83.511l0,0
							c48.169,2.295,105.076-1.953,169.158-12.666c25.662-4.292,43.049-28.662,38.757-54.321
							c-2.078-12.437-8.872-23.32-19.131-30.64c-10.259-7.324-22.754-10.215-35.191-8.125
							c-161.394,26.982-237.751,4.492-255.4-25.557c-12.754-21.724,0.293-62.393,33.235-103.608
							c73.921-92.461,224.521-164.434,348.611-124.805c105.21,33.599,208.672,42.974,299.187,27.104
							c85.962-15.059,157.705-52.886,202.009-106.504c56.682-68.608,63.955-158.345,19.451-240.044
							c-62.5-114.736-203.677-87.905-306.755-68.315c-28.582,5.43-67.59,12.842-91.594,13.354
							c-5.833,0.122-11.526-2.349-15.422-6.763c-3.894-4.409-5.65-10.317-4.792-16.143c1.924-13.086,6.296-29.365,12.996-48.384
							c28.122-79.81,192.434-111.958,337.405-140.322c158.276-30.967,294.966-57.71,334.233-148.374
							c19.016-43.906,10.925-94.443-24.048-150.21c-26.716-42.593-67.034-70.068-116.589-79.458
							c-149.575-28.325-346.436,113.12-368.391,129.341c-20.928,15.464-25.374,45.068-9.912,65.996
							c15.464,20.928,45.073,25.371,65.996,9.917c1.814-1.338,184.412-133.359,294.744-112.524
							c24.058,4.561,41.279,16.279,54.202,36.875c12.007,19.146,24.771,45.542,17.393,62.559
							c-4.224,9.766-20.325,29.224-80.613,49.702c-50.955,17.309-116.13,30.059-185.134,43.555
							c-178.086,34.844-362.236,70.869-408.296,201.577c-16.953,48.125-35.02,117.314,3.682,162.349
							c42.866,49.873,116.501,35.879,201.76,19.673c103.443-19.653,178.787-29.673,206.257,20.742
							c26.523,48.696,23.296,95.303-9.329,134.785c-55.808,67.549-204.695,111.88-399.734,49.604
							C1727.868,1871.435,1692.531,1866.391,1657.479,1866.391z"/>
					</g>
				</g>
			</g>
		</g>
		<g>
			<g style="opacity:0.3;">
				<g>
					<path style="fill:#6D184E;" d="M2836.081,1026.945c1.916,4.291,3.821,8.6,5.69,12.968
						C2839.902,1035.542,2837.996,1031.238,2836.081,1026.945z"/>
				</g>
			</g>
			<g style="opacity:0.3;">
				<g>
					<path style="fill:#6D184E;" d="M2849.168,1057.717c0.865,2.147,1.705,4.333,2.559,6.497
						C2850.873,1062.051,2850.034,1059.865,2849.168,1057.717z"/>
				</g>
			</g>
			<g style="opacity:0.3;">
				<g>
					<path style="fill:#6D184E;" d="M2834.154,1022.612c0.649,1.433,1.283,2.891,1.927,4.332
						C2835.437,1025.503,2834.803,1024.045,2834.154,1022.612z"/>
				</g>
			</g>
			<g style="opacity:0.3;">
				<g>
					<path style="fill:#6D184E;" d="M2844.054,1045.364c1.72,4.094,3.437,8.195,5.114,12.354
						C2847.49,1053.557,2845.773,1049.459,2844.054,1045.364z"/>
				</g>
			</g>
			<g style="opacity:0.3;">
				<g>
					<path style="fill:#6D184E;" d="M2841.771,1039.912c0.771,1.803,1.521,3.636,2.283,5.452
						C2843.291,1043.55,2842.541,1041.714,2841.771,1039.912z"/>
				</g>
			</g>
			<g style="opacity:0.3;">
				<g>
					<path style="fill:#6D184E;" d="M2827.86,1009.065c2.121,4.475,4.225,8.982,6.294,13.547
						C2832.086,1018.044,2829.981,1013.542,2827.86,1009.065z"/>
				</g>
			</g>
			<g style="opacity:0.3;">
				<g>
					<path style="fill:#6D184E;" d="M2826.742,1006.658c0.032,0.078,0.063,0.16,0.095,0.238c0.343,0.719,0.682,1.448,1.023,2.169
						C2827.483,1008.27,2827.12,1007.45,2826.742,1006.658z"/>
				</g>
			</g>
			<g style="opacity:0.3;">
				<g>
					<path style="fill:#6D184E;" d="M2873.422,1124.946c0.919,2.856,1.864,5.681,2.764,8.562
						C2875.286,1130.627,2874.341,1127.803,2873.422,1124.946z"/>
				</g>
			</g>
			<g style="opacity:0.3;">
				<g>
					<path style="fill:#6D184E;" d="M2876.186,1133.508c2.064,6.606,4.081,13.273,6.041,20.002
						C2880.267,1146.781,2878.251,1140.115,2876.186,1133.508z"/>
				</g>
			</g>
			<g style="opacity:0.3;">
				<g>
					<path style="fill:#6D184E;" d="M2869.848,1113.914c1.218,3.645,2.388,7.349,3.574,11.033
						C2872.235,1121.262,2871.066,1117.557,2869.848,1113.914z"/>
				</g>
			</g>
			<g style="opacity:0.3;">
				<g>
					<path style="fill:#6D184E;" d="M2851.727,1064.214c1.545,3.914,3.093,7.822,4.599,11.791
						C2854.82,1072.035,2853.271,1068.129,2851.727,1064.214z"/>
				</g>
			</g>
			<g style="opacity:0.3;">
				<g>
					<path style="fill:#6D184E;" d="M2859.125,1083.573c1.375,3.712,2.759,7.411,4.099,11.169
						C2861.884,1090.983,2860.499,1087.285,2859.125,1083.573z"/>
				</g>
			</g>
			<g style="opacity:0.3;">
				<g>
					<path style="fill:#6D184E;" d="M2866.299,1103.616c1.187,3.428,2.391,6.833,3.549,10.298
						C2868.69,1110.449,2867.486,1107.045,2866.299,1103.616z"/>
				</g>
			</g>
			<g style="opacity:0.3;">
				<g>
					<path style="fill:#6D184E;" d="M2856.326,1076.005c0.948,2.501,1.865,5.045,2.799,7.568
						C2858.191,1081.051,2857.275,1078.505,2856.326,1076.005z"/>
				</g>
			</g>
			<g style="opacity:0.3;">
				<g>
					<path style="fill:#6D184E;" d="M2863.224,1094.742c1.045,2.931,2.051,5.914,3.075,8.873
						C2865.275,1100.657,2864.269,1097.673,2863.224,1094.742z"/>
				</g>
			</g>
			<g style="opacity:0.3;">
				<g>
					<path style="fill:#6D184E;" d="M1976.187,1153.511l22.405-20.002l46.145-30.735c62.273-117.542,107.07-182.715,117.923-198.015
						c-52.337-10.677-152.77-18.608-163.154,74.556c-6.684,59.969-47.677,215.267-144.766,394.254l75.689-32.501
						c18.882-43.297,37.23-83.268,54.818-120.032l-3.85-1.65L1976.187,1153.511z"/>
				</g>
			</g>
			<g style="opacity:0.3;">
				<g>
					<path style="fill:#6D184E;" d="M2826.837,1006.896c-22.936-48.068-48.83-90.783-76.837-126.896
						c78.259,232.17,154.38,602.051-45,1015c-317.412,657.417-930,970-1139.742,729.258
						c-163.976,97.378-468.931-4.943-456.533-263.06c2.006-41.768,52.977-108.481,128.681-190.22l-0.76-13.567L1255,2085
						l54.437-81.927L1400,1930l101.851-48.857l28.837-6.917c72.93-73.976,145.461-150.339,208.461-225.369l-5.02-4.458l-4.055-75.67
						c-105.664,141.567-247.996,282.24-436.521,390.848c-269.326,155.157-339.217,357.183-273.915,532.839
						c76.155,147.158,248.804,269.971,476.894,321.323c20.225,4.553,41.624,5.933,64.002,4.387
						c183.504,45.325,486.394,4.739,879.948-349.307C2961.111,2000.455,2977.721,1373.854,2826.837,1006.896z"/>
				</g>
			</g>
		</g>
	</g>
</g>
</svg>
